<svg xmlns="http://www.w3.org/2000/svg" height="48" width="48">
    <path
        d="M25.2 38.2 9.8 22.8q-1.3-1.4-1.3-3.2 0-1.8 1.3-3.2l6.85-6.8q1.3-1.45 3.15-1.425 1.85.025 3.25 1.425L38.45 25q1.35 1.35 1.35 3.2t-1.35 3.2l-6.85 6.8q-1.3 1.4-3.15 1.4-1.85 0-3.25-1.4Zm3.15-2.75 7.3-7.3L19.8 12.3l-7.25 7.25ZM23.9 48.3q-5 0-9.4-1.9t-7.675-5.2Q3.55 37.9 1.65 33.5t-1.9-9.4h3.5q0 3.75 1.3 7.2t3.6 6.1q2.3 2.65 5.475 4.45 3.175 1.8 6.875 2.25l-5.8-5.8 2.55-2.5L29.1 47.65q-1.25.35-2.575.5-1.325.15-2.625.15Zm20.85-24.2q0-3.7-1.3-7.175-1.3-3.475-3.55-6.15Q37.65 8.1 34.5 6.3q-3.15-1.8-6.8-2.35l5.65 5.7-2.5 2.55L18.95.35q1.25-.3 2.475-.45Q22.65-.25 23.9-.25q5 0 9.45 1.9 4.45 1.9 7.775 5.225Q44.45 10.2 46.35 14.65q1.9 4.45 1.9 9.45Zm-20.6-.25Z" />
</svg>